<?xml version="1.0" standalone="no"?>
<!DOCTYPE svg PUBLIC "-//W3C//DTD SVG 20010904//EN"
 "http://www.w3.org/TR/2001/REC-SVG-20010904/DTD/svg10.dtd">
<svg version="1.0" xmlns="http://www.w3.org/2000/svg"
 width="128.000000pt" height="128.000000pt" viewBox="0 0 128.000000 128.000000"
 preserveAspectRatio="xMidYMid meet">
<metadata>
Created by potrace 1.11, written by Peter Selinger 2001-2013
</metadata>
<g transform="translate(0.000000,128.000000) scale(0.100000,-0.100000)"
fill="#000000" stroke="none">
<path d="M0 640 l0 -640 640 0 640 0 0 640 0 640 -640 0 -640 0 0 -640z m1147
-38 c21 -12 21 -13 6 -52 -12 -31 -20 -39 -32 -34 -9 4 -44 9 -79 12 -69 5
-92 -6 -92 -43 0 -28 12 -38 91 -76 108 -52 149 -109 134 -186 -15 -83 -74
-123 -180 -123 -36 0 -86 5 -111 11 -39 10 -44 14 -38 33 11 35 23 66 26 66 2
0 26 -7 53 -15 89 -28 165 3 151 59 -5 19 -28 36 -96 71 -99 52 -130 87 -130
150 0 57 26 101 73 125 35 18 55 21 122 17 44 -2 90 -9 102 -15z m-555 -199
l3 -208 108 3 107 4 0 -46 0 -46 -160 0 -160 0 0 250 0 250 50 0 50 0 2 -207z"/>
</g>
</svg>
